<?xml version="1.0" encoding="UTF-8" standalone="no"?>
<svg
   xmlns:dc="http://purl.org/dc/elements/1.1/"
   xmlns:cc="http://creativecommons.org/ns#"
   xmlns:rdf="http://www.w3.org/1999/02/22-rdf-syntax-ns#"
   xmlns:svg="http://www.w3.org/2000/svg"
   xmlns="http://www.w3.org/2000/svg"
   xmlns:sodipodi="http://sodipodi.sourceforge.net/DTD/sodipodi-0.dtd"
   xmlns:inkscape="http://www.inkscape.org/namespaces/inkscape"
   width="74mm"
   height="52mm"
   version="1.1"
   id="source-code"
   inkscape:export-filename="/home/nya/puntotech/RxJSDocs/rxjs-docs/src/assets/icons/source.svg.png"
   inkscape:export-xdpi="44.971729"
   inkscape:export-ydpi="44.971729"
   inkscape:version="1.0.1 (3bc2e813f5, 2020-09-07)"
   sodipodi:docname="source.svg">
  <defs
     id="defs2" />
  <sodipodi:namedview
     id="base"
     pagecolor="#ffffff"
     bordercolor="#666666"
     borderopacity="1.0"
     inkscape:pageopacity="0.0"
     inkscape:pageshadow="2"
     inkscape:zoom="1.5115134"
     inkscape:cx="266.14743"
     inkscape:cy="192.27494"
     inkscape:document-units="mm"
     inkscape:current-layer="layer1"
     inkscape:document-rotation="0"
     showgrid="false"
     inkscape:window-width="1920"
     inkscape:window-height="1051"
     inkscape:window-x="0"
     inkscape:window-y="0"
     inkscape:window-maximized="1" />
  <metadata
     id="metadata5">
    <rdf:RDF>
      <cc:Work
         rdf:about="">
        <dc:format>image/svg+xml</dc:format>
        <dc:type
           rdf:resource="http://purl.org/dc/dcmitype/StillImage" />
        <dc:title></dc:title>
      </cc:Work>
    </rdf:RDF>
  </metadata>
  <g
     inkscape:label="Layer 1"
     inkscape:groupmode="layer"
     id="layer1">
    <path
       id="path855"
       style="fill:#ffffff;stroke:#f9f9f9;stroke-width:0.264583;stroke-linejoin:round;stroke-dasharray:0.264583, 1.5875"
       d="m 26.310022,134.83621 -2.042253,0.80047 c -0.459057,0.31149 -0.226661,0.15323 -0.697632,0.47542 -0.531613,0.3623 -1.091117,0.68029 -1.621606,1.04438 -0.909396,0.61453 -1.839825,1.19917 -2.787427,1.75287 l 2.094963,-0.80719 c 0.912753,-0.5688 1.830371,-1.13368 2.718697,-1.74046 0.54872,-0.34736 1.111896,-0.66741 1.634525,-1.0542 0.472472,-0.31632 0.239031,-0.15922 0.700733,-0.47129 z" />
    <path
       style="fill:#ffffff;stroke:#f9f9f9;stroke-width:0.264583;stroke-linejoin:round;stroke-dasharray:0.264583, 1.5875"
       id="path858"
       d="m 25.81185,138.58569 c -0.425854,0.26556 -1.135431,0.31535 -1.277562,0.79667 -0.12671,0.42909 0.808389,-0.38369 1.212386,-0.57595 2.442621,-1.16244 4.876082,-2.34395 7.30298,-3.53884 1.608796,-0.74798 3.195886,-1.54724 4.828228,-2.24394 0.05526,-0.0249 0.110519,-0.0499 0.165777,-0.0749 0,0 1.742863,-1.39687 1.742863,-1.39687 v 0 c -0.05775,0.0329 -0.115495,0.0658 -0.173243,0.0987 -1.712918,0.75724 -3.371758,1.63329 -5.069608,2.42281 -1.858237,0.92523 -3.722131,1.83898 -5.599818,2.72432 -0.532638,0.25114 -1.067851,0.4968 -1.603407,0.74165 -0.373867,0.17093 -0.7596,0.31698 -1.124828,0.50567 -0.83766,0.43275 -1.65434,0.90496 -2.48151,1.35745 0,0 2.077742,-0.81685 2.077742,-0.81685 z" />
    <path
       style="fill:#ffffff;stroke:#f9f9f9;stroke-width:0.264583;stroke-linejoin:round;stroke-dasharray:0.264583, 1.5875"
       id="path860"
       d="m 39.459034,137.7502 c -1.621112,1.69143 -3.261545,3.36447 -4.901583,5.03753 -0.938601,0.95749 -1.897203,1.89568 -2.81872,2.86963 -1.115616,1.17908 -2.194531,2.39236 -3.291795,3.58854 -3.456076,3.90483 -6.783513,7.93833 -9.570769,12.35687 -0.851463,1.34979 -1.643453,2.73766 -2.397487,4.1442 -1.641942,3.06281 -2.221476,4.58013 -3.566307,7.70286 -1.56559,3.99539 -0.855187,2.0874 -2.150119,5.71691 0,0 1.61602,-0.75775 1.61602,-0.75775 v 0 c 1.149215,-3.55826 0.508583,-1.68586 1.946063,-5.60888 1.339197,-3.23311 1.758293,-4.44632 3.442361,-7.6268 0.739631,-1.39685 1.517932,-2.77494 2.356498,-4.11473 2.773194,-4.43077 6.094846,-8.47596 9.595955,-12.34506 1.143762,-1.21364 2.266545,-2.44739 3.431286,-3.64091 0.976921,-1.00106 1.994111,-1.96201 2.992532,-2.94163 1.782736,-1.74915 3.565742,-3.49832 5.365705,-5.22977 0,0 -2.04964,0.84899 -2.04964,0.84899 z" />
    <path
       style="fill:#ffffff;stroke:#f9f9f9;stroke-width:0.264583;stroke-linejoin:round;stroke-dasharray:0.264583, 1.5875"
       id="path862"
       d="m 15.691677,175.00789 c 0.09313,-0.0579 0.185872,-0.11634 0.279381,-0.17358 0.158033,-0.0967 0.635708,-0.38098 0.475235,-0.28834 -0.401063,0.23151 -0.818424,0.43843 -1.197076,0.70503 -0.219124,0.15428 0.473899,-0.2507 0.715745,-0.36614 0.780974,-0.3728 0.779586,-0.34662 1.608869,-0.6373 0.912331,-0.20091 1.199913,-0.31394 2.177502,-0.30479 2.147295,0.0201 4.208385,0.7079 6.222225,1.37473 1.943381,0.81011 4.142253,1.66694 5.597091,3.26534 0.19258,0.21158 0.347774,0.45439 0.521658,0.68158 0.503563,0.8314 0.783317,1.76203 0.838856,2.73141 0.02392,0.41738 -0.0069,0.88494 -0.02482,1.30133 -0.0768,1.2229 -0.57309,2.32092 -1.223505,3.33805 -0.185303,0.2476 -0.37134,0.50152 -0.621016,0.68946 -0.05503,0.0414 -0.234389,0.14477 -0.174869,0.11011 1.865919,-1.08676 2.368431,-1.30552 1.602907,-0.96216 -0.316976,0.11414 -0.64938,0.15896 -0.981001,0.20491 -0.297331,0.0529 -0.595196,0.10412 -0.896646,0.12582 -0.285375,0.006 -0.215615,0.0346 -0.287626,-0.31981 -0.163452,-1.14465 -0.153266,-2.29813 -0.04768,-3.44638 0.150116,-1.06059 0.337045,-2.11456 0.562996,-3.16141 0,0 -1.960465,0.95064 -1.960465,0.95064 v 0 c -0.193643,1.05227 -0.366043,2.10833 -0.520803,3.16702 -0.09931,1.17633 -0.10922,2.35869 0.0056,3.53499 0.03829,0.22146 0.09225,0.68749 0.430176,0.59404 0.311134,0.023 0.620763,-0.053 0.926867,-0.10046 0.332153,-0.0653 0.676725,-0.0671 1.000035,-0.17993 1.237393,-0.24984 2.291818,-1.06821 2.959066,-2.09081 0.610592,-1.05882 1.085103,-2.18331 1.14455,-3.42219 0.01685,-0.47575 0.04376,-0.85399 0.0066,-1.32999 -0.07843,-1.00397 -0.389427,-1.96229 -0.926653,-2.81502 -0.185505,-0.23325 -0.351941,-0.48303 -0.556514,-0.69975 -1.52377,-1.61427 -3.761409,-2.41638 -5.748105,-3.27074 -2.003431,-0.66722 -4.061588,-1.39117 -6.193397,-1.48754 -0.975166,-0.0441 -1.252487,0.0573 -2.168727,0.22742 -0.280772,0.0915 -0.565741,0.17098 -0.842317,0.27445 -1.697426,0.63509 -3.238024,1.68448 -4.79346,2.59751 0,0 2.089338,-0.8175 2.089338,-0.8175 z" />
    <circle
       id="path864"
       style="fill:#000000;stroke:#f9f9f9;stroke-width:0.264583"
       cx="41.836128"
       cy="185.5578"
       r="0.019981239" />
    <g
       id="g1069"
       transform="translate(-57.822452,-111.58053)">
      <rect
         style="fill:#000000;stroke:#000000;stroke-width:0.265;stroke-linejoin:round;stroke-miterlimit:4;stroke-dasharray:none;stroke-dashoffset:0;stroke-opacity:1"
         id="rect841"
         width="57.61602"
         height="46.344398"
         x="65.973587"
         y="114.6033"
         ry="7.098268" />
      <rect
         style="fill:#ffffff;stroke:#f9f9f9;stroke-width:0.258518;stroke-linejoin:round;stroke-miterlimit:4;stroke-dasharray:none"
         id="rect849"
         width="49.138615"
         height="31.881754"
         x="70.212288"
         y="124.59203"
         ry="3.7493267" />
      <g
         id="g1039"
         transform="translate(0.00602612)">
        <g
           id="g1030"
           transform="matrix(0.96910883,0,0,0.96910883,6.0706548,4.6303944)">
          <rect
             style="fill:#000000;stroke:#000000;stroke-width:0.149415;stroke-linejoin:round;stroke-miterlimit:4;stroke-dasharray:0, 1.64357;stroke-dashoffset:0;stroke-opacity:1"
             id="rect916-7-3"
             width="2.6393211"
             height="10.732525"
             x="-157.41446"
             y="-41.192333"
             ry="1.3196605"
             transform="matrix(-0.68462988,-0.72889089,0.72585926,-0.68784325,0,0)"
             inkscape:transform-center-x="-1.8691366"
             inkscape:transform-center-y="2.7940254" />
          <rect
             style="fill:#000000;stroke:#000000;stroke-width:0.149415;stroke-linejoin:round;stroke-miterlimit:4;stroke-dasharray:0, 1.64357;stroke-dashoffset:0;stroke-opacity:1"
             id="rect916-7-5-5"
             width="2.6393211"
             height="10.732525"
             x="40.951103"
             y="-165.22473"
             ry="1.3196605"
             transform="matrix(-0.72125335,0.69267136,-0.6958509,-0.71818628,0,0)"
             inkscape:transform-center-x="-2.7731169"
             inkscape:transform-center-y="-1.9000065" />
        </g>
        <g
           id="g1026"
           transform="matrix(-0.96856293,0.0325235,-0.0325235,-0.96856293,209.19794,274.89701)">
          <rect
             style="fill:#000000;stroke:#000000;stroke-width:0.149415;stroke-linejoin:round;stroke-miterlimit:4;stroke-dasharray:0, 1.64357;stroke-dashoffset:0;stroke-opacity:1"
             id="rect916-7-3-6"
             width="2.6393211"
             height="10.732525"
             x="-172.18559"
             y="-24.998585"
             ry="1.3196605"
             transform="matrix(-0.68462988,-0.72889089,0.72585926,-0.68784324,0,0)"
             inkscape:transform-center-x="-1.8691366"
             inkscape:transform-center-y="2.7940254" />
          <rect
             style="fill:#000000;stroke:#000000;stroke-width:0.149415;stroke-linejoin:round;stroke-miterlimit:4;stroke-dasharray:0, 1.64357;stroke-dashoffset:0;stroke-opacity:1"
             id="rect916-7-5-5-2"
             width="2.6393211"
             height="10.732525"
             x="24.987278"
             y="-180.10345"
             ry="1.3196605"
             transform="matrix(-0.72125334,0.69267136,-0.69585089,-0.71818628,0,0)"
             inkscape:transform-center-x="-2.7731169"
             inkscape:transform-center-y="-1.9000065" />
        </g>
        <rect
           style="fill:#000000;stroke:#000000;stroke-width:0.250999;stroke-linejoin:round;stroke-miterlimit:4;stroke-dasharray:0, 2.761;stroke-dashoffset:0;stroke-opacity:1"
           id="rect1022"
           width="2.6907451"
           height="17.32967"
           x="130.09296"
           y="99.66835"
           ry="1.2788937"
           transform="rotate(16.691653)" />
      </g>
    </g>
  </g>
</svg>
